<?xml version="1.0" encoding="utf-8"?>
<!-- Generator: Adobe Illustrator 24.3.0, SVG Export Plug-In . SVG Version: 6.00 Build 0)  -->
<svg version="1.1" id="レイヤー_1" xmlns="http://www.w3.org/2000/svg" xmlns:xlink="http://www.w3.org/1999/xlink" x="0px"
	 y="0px" viewBox="0 0 66 66" style="enable-background:new 0 0 66 66;" xml:space="preserve">
<style type="text/css">
	.st0{fill:none;stroke:#000000;stroke-width:2;stroke-miterlimit:10;}
</style>
<g id="レイヤー_2_1_">
	<g id="レイヤー_2-2">
		<path d="M20.5,27C20.5,27,20.5,27,20.5,27c0.1-0.4,0.2-0.8,0.4-1.1l-1.4-0.4c0,0.3-0.1,0.7-0.2,1c0,0.1,0,0.1,0,0.2
			c-0.2,0-0.4,0-0.6,0c-1,0-2,0.2-2.9,0.4c0-0.7,0.1-1.5,0.2-2.2c2.1-0.1,4.2-0.3,6.3-0.7v-1.3c-2,0.4-4.1,0.7-6.1,0.8
			c0.1-0.5,0.1-1,0.2-1.3c0-0.3,0.1-0.5,0.2-0.8H15c0,0.2,0,0.5,0,0.8s-0.1,0.8-0.1,1.4c-0.4,0-0.8,0-1.2,0c-1,0-1.9-0.1-2.9-0.2V25
			c0.7,0.1,2.1,0.1,2.8,0.1c0.4,0,0.7,0,1.1,0c-0.1,0.8-0.2,1.7-0.2,2.6c-2.4,1.1-4.4,3.4-4.4,5.7c-0.1,1.1,0.7,2.1,1.8,2.2
			c0.1,0,0.1,0,0.2,0c1.1-0.1,2.1-0.4,3-1c0.1,0.3,0.2,0.7,0.3,1l1.2-0.4c-0.1-0.4-0.3-0.9-0.4-1.4c1.7-1.6,3.1-3.5,3.9-5.7
			c1.4,0.3,2.5,1.5,2.5,3c0,2.3-2,3.9-5.1,4.2l0.7,1.2c4-0.7,5.7-2.8,5.7-5.4C23.9,29.1,22.5,27.4,20.5,27z M12.4,34.2
			c-0.7,0-1-0.4-1-1.1c0-1.4,1.3-3.2,3-4.1v0.3c0,1.3,0.2,2.7,0.4,4C14.1,33.8,13.3,34.2,12.4,34.2z M15.9,32.4
			c-0.2-1.1-0.3-2.1-0.3-3.2c0-0.2,0-0.5,0-0.7c1-0.4,2-0.6,3-0.6h0.3C18.3,29.6,17.3,31.1,15.9,32.4L15.9,32.4z M46.9,29.9
			c0.2-0.6,0.5-1.5,0.7-1.9l-3.3-0.8c-0.1,0.7-0.2,1.5-0.4,2.2c-0.3,0-0.6,0-1,0c-1.8,0-3.6,0.3-5.4,0.7c0.1-1.2,0.2-2.5,0.3-3.7
			c4.1-0.2,8.1-0.6,12.1-1.3V22c-3.8,0.8-7.8,1.3-11.7,1.4c0.1-0.8,0.3-1.6,0.4-2.2c0.1-0.5,0.2-1.1,0.4-1.6l-3.5-0.1
			c0,0.6,0,1.2-0.1,1.8c-0.1,0.7-0.2,1.4-0.2,2.3h-1.8c-2,0-3.9-0.2-5.9-0.4l0.1,3.2c1.5,0.1,4.1,0.2,5.7,0.2h1.6
			c-0.1,1.5-0.3,3-0.3,4.6c-4.7,2.2-8.4,6.7-8.4,11.1c0,3.1,1.9,4.5,4.2,4.5c1.9-0.1,3.8-0.6,5.5-1.6c0.2,0.6,0.3,1.2,0.5,1.7
			l3.1-0.9c-0.3-0.8-0.6-1.7-0.8-2.7c3.3-2.9,5.8-6.6,7.3-10.7c2.5,0.6,4.2,2.8,4.3,5.4c0,3.9-3.3,7.1-9.6,7.8l1.8,2.8
			c8-1.2,11-5.7,11-10.5C53.6,34.2,51,31.1,46.9,29.9L46.9,29.9z M31.1,43.5c-1.2,0-1.8-0.6-1.8-1.9c0-2.4,2.1-5.4,5.1-7.2
			c0,2.6,0.3,5.1,0.7,7.7C34,42.9,32.6,43.4,31.1,43.5z M37.9,39.8c-0.3-2-0.5-4-0.5-6V33c1.7-0.6,3.5-1,5.4-1H43
			C41.9,34.9,40.2,37.5,37.9,39.8z"/>
		<path class="st0" d="M32.8,1.2c17.6-0.1,31.9,14.1,32,31.6s-14.1,31.9-31.6,32S1.3,50.7,1.2,33.2c0-0.1,0-0.1,0-0.2
			C1.2,15.5,15.3,1.3,32.8,1.2z"/>
	</g>
</g>
</svg>
