<svg xmlns="http://www.w3.org/2000/svg" viewBox="0 0 125.25 31.95"><defs><style>.cls-1{fill:#d42258;}</style></defs><g id="レイヤー_2" data-name="レイヤー 2"><g id="レイヤー_4" data-name="レイヤー 4"><path class="cls-1" d="M3.82,29.66H1.46a.4.4,0,0,1-.41-.45V27.46H3.12a.31.31,0,0,0,.34-.32c0-.19-.14-.29-.34-.29H1.05V25.37a.4.4,0,0,1,.41-.44H3.6a.31.31,0,1,0,0-.61H1.27c-.71,0-1,.29-1,1v3.89c0,.73.27,1,1,1H3.82A.29.29,0,0,0,4.15,30C4.15,29.75,4,29.66,3.82,29.66ZM8,26.2a.31.31,0,0,0-.3.22l-.59,1.64c-.16.46-.31.92-.47,1.37H6.53c-.14-.44-.28-.89-.44-1.33l-.63-1.68a.32.32,0,0,0-.3-.22.38.38,0,0,0-.4.31.6.6,0,0,0,.06.23l1.39,3.5-.07.18c-.29.7-.49.93-.87.93l-.28,0a.26.26,0,0,0-.26.28.3.3,0,0,0,.26.33h.28c.59,0,1.06-.31,1.45-1.31l1.56-4a.39.39,0,0,0,0-.18C8.32,26.34,8.14,26.2,8,26.2Zm4.52,1.59a1.63,1.63,0,0,0-1.63-1.64A1.86,1.86,0,0,0,9,28.25c0,1.35.74,2.13,1.86,2.13a2.17,2.17,0,0,0,1.41-.5.22.22,0,0,0,.11-.19.31.31,0,0,0-.31-.31.28.28,0,0,0-.21.08,1.4,1.4,0,0,1-1,.33c-.63,0-1.13-.48-1.16-1.35h2.06A.58.58,0,0,0,12.47,27.79Zm-.88.12H9.76a1.16,1.16,0,0,1,1.08-1.22,1,1,0,0,1,1,1A.21.21,0,0,1,11.59,27.91Zm8-3.64a.36.36,0,0,0-.32.27l-1.21,3.68c-.14.45-.28.92-.42,1.36h-.06c-.13-.45-.26-.92-.4-1.37l-1.13-3.67a.36.36,0,0,0-.32-.27c-.25,0-.43.13-.43.33a.43.43,0,0,0,0,.19l1.62,5a.63.63,0,0,0,.64.51.65.65,0,0,0,.63-.52l1.74-5a.71.71,0,0,0,0-.2C20,24.4,19.88,24.27,19.62,24.27Zm1.82,0a.51.51,0,1,0,.51.5A.5.5,0,0,0,21.44,24.26Zm0,1.94a.32.32,0,0,0-.35.35V30a.36.36,0,0,0,.71,0V26.55A.32.32,0,0,0,21.43,26.2Zm3.31,1.72-.28-.06c-.65-.13-.83-.27-.83-.64s.31-.53.72-.53a1.12,1.12,0,0,1,.9.38.3.3,0,0,0,.23.1.33.33,0,0,0,.31-.32.29.29,0,0,0-.1-.23,1.83,1.83,0,0,0-1.34-.47c-.81,0-1.39.43-1.39,1.07s.31,1,1.21,1.22l.27,0c.64.14.81.35.81.67s-.27.66-.83.66a1.28,1.28,0,0,1-1.05-.44.27.27,0,0,0-.24-.13.32.32,0,0,0-.31.29.36.36,0,0,0,.09.24,1.92,1.92,0,0,0,1.51.6c1,0,1.5-.51,1.5-1.22S25.57,28.09,24.74,27.92Zm2.63-1.72a.33.33,0,0,0-.36.35V30a.36.36,0,0,0,.72,0V26.55A.33.33,0,0,0,27.37,26.2Zm0-1.94a.51.51,0,1,0,0,1,.51.51,0,1,0,0-1Zm3.34,1.89a1.86,1.86,0,0,0-1.84,2.1,1.88,1.88,0,0,0,1.84,2.13c1.1,0,1.84-.81,1.84-2.13A1.85,1.85,0,0,0,30.72,26.15Zm0,3.66c-.68,0-1.1-.6-1.1-1.56s.42-1.54,1.1-1.54,1.11.59,1.11,1.54S31.4,29.81,30.72,29.81ZM37,29.15V27.86a1.78,1.78,0,0,0-.37-1.34,1.25,1.25,0,0,0-1-.37A1.42,1.42,0,0,0,34.4,27v-.45a.33.33,0,0,0-.34-.35.32.32,0,0,0-.34.35V30a.31.31,0,0,0,.35.35.32.32,0,0,0,.36-.35V28a1.22,1.22,0,0,1,1.13-1.28.64.64,0,0,1,.5.21,1.4,1.4,0,0,1,.21.95v1.25a3.65,3.65,0,0,0,.08.89c0,.2.14.28.33.28s.4-.12.4-.26a.45.45,0,0,0,0-.12A3.77,3.77,0,0,1,37,29.15ZM17.27,4.35a2.24,2.24,0,0,0-.45-1.41A2.55,2.55,0,0,0,14.59,2H1C.41,2,0,2.51,0,3.29S.37,4.52,1,4.52H13.92c.4,0,.59.16.59.43a1,1,0,0,1-.12.42,7.89,7.89,0,0,1-3.66,3.29,1.11,1.11,0,0,0-.62,1,1.45,1.45,0,0,0,.19.67,1.17,1.17,0,0,0,1,.63,1.36,1.36,0,0,0,.61-.14,10.38,10.38,0,0,0,5-4.95A3.83,3.83,0,0,0,17.27,4.35ZM2.13,18.74a2,2,0,0,0,.63-.12,9.29,9.29,0,0,0,5.09-4.54A15.71,15.71,0,0,0,9.13,7.27c0-.77-.51-1.18-1.34-1.18A1.15,1.15,0,0,0,6.5,7.29a13.27,13.27,0,0,1-.94,5.58,7.22,7.22,0,0,1-3.95,3.48,1.05,1.05,0,0,0-.71,1,1.72,1.72,0,0,0,.16.67A1.15,1.15,0,0,0,2.13,18.74ZM34.92,2.43a1.16,1.16,0,0,0-.55-.94,1.5,1.5,0,0,0-.86-.3,1.29,1.29,0,0,0-1,.47,25,25,0,0,1-5.35,4.53,32.13,32.13,0,0,1-7.6,3.64A1.17,1.17,0,0,0,18.68,11a1.36,1.36,0,0,0,.08.49,1.11,1.11,0,0,0,1.12.78,2.08,2.08,0,0,0,.58-.1,34.43,34.43,0,0,0,6.64-3V17.7c0,.77.53,1.08,1.32,1.08s1.31-.35,1.31-1V7.48A26.44,26.44,0,0,0,34.6,3.23,1.24,1.24,0,0,0,34.92,2.43ZM41.69,7.7A2.21,2.21,0,1,0,43.9,9.91,2.2,2.2,0,0,0,41.69,7.7ZM64.5,15.3a1.12,1.12,0,0,0-.31,0,38,38,0,0,1-6.15.53c-3.68,0-4-.17-4-2.64v-3A29.87,29.87,0,0,0,64,7.05,1.2,1.2,0,0,0,64.62,6a1.5,1.5,0,0,0-.23-.78,1.21,1.21,0,0,0-1-.61,1.75,1.75,0,0,0-.78.22A26.74,26.74,0,0,1,54.05,7.7v-5c0-.78-.45-1.11-1.26-1.11s-1.27.33-1.27,1.11V13.36c0,4.11.92,4.91,6.33,4.91a39.42,39.42,0,0,0,6.71-.49,1.1,1.1,0,0,0,1-1.19.82.82,0,0,0,0-.22A1.06,1.06,0,0,0,64.5,15.3Zm.1-13.93A.89.89,0,0,0,63.86,1a1.14,1.14,0,0,0-.49.12.92.92,0,0,0-.49.78.75.75,0,0,0,.12.41c.43.63.9,1.31,1.23,1.92a.85.85,0,0,0,.78.45,1,1,0,0,0,.53-.14A.8.8,0,0,0,66,3.78a1.42,1.42,0,0,0-.1-.47A18.38,18.38,0,0,0,64.6,1.37Zm2.49-1A.94.94,0,0,0,66.33,0a.91.91,0,0,0-.44.12.78.78,0,0,0-.5.72.89.89,0,0,0,.15.47,14.37,14.37,0,0,1,1.18,1.88.85.85,0,0,0,.76.47A1.19,1.19,0,0,0,68,3.54a.84.84,0,0,0,.47-.74,1.22,1.22,0,0,0-.1-.45A13.08,13.08,0,0,0,67.09.39ZM72.46,3.8a28.73,28.73,0,0,1,4.11,2.13,1.19,1.19,0,0,0,1.74-.49,1.34,1.34,0,0,0,.2-.7,1.18,1.18,0,0,0-.61-1,27,27,0,0,0-4.31-2.15,1.75,1.75,0,0,0-.53-.08,1.28,1.28,0,0,0-1.11.7,1.54,1.54,0,0,0-.16.63A1,1,0,0,0,72.46,3.8ZM75,11a1.34,1.34,0,0,0,.73.23,1.29,1.29,0,0,0,1.11-.65A1.71,1.71,0,0,0,77,9.87a1.11,1.11,0,0,0-.59-1,28.41,28.41,0,0,0-4.54-2.29,1.54,1.54,0,0,0-.51-.1,1.11,1.11,0,0,0-1,.71,1.52,1.52,0,0,0-.19.68,1,1,0,0,0,.64.94A34.16,34.16,0,0,1,75,11ZM87.38.47A.92.92,0,0,0,86.62.1a1.09,1.09,0,0,0-.44.1.89.89,0,0,0-.54.76.74.74,0,0,0,.15.45,11.58,11.58,0,0,1,1.1,1.88.83.83,0,0,0,.78.53,1.14,1.14,0,0,0,.49-.12.85.85,0,0,0,.47-.76,1.37,1.37,0,0,0-.1-.47A13,13,0,0,0,87.38.47Zm-1.45,5a1.38,1.38,0,0,0-.43-.07,1.15,1.15,0,0,0-1.12,1,13.11,13.11,0,0,1-4.23,6.71A15.94,15.94,0,0,1,71.71,16a1.1,1.1,0,0,0-1.13,1.18.58.58,0,0,0,0,.19,1.21,1.21,0,0,0,1.31,1.16H72a17.7,17.7,0,0,0,9.63-3.39A15.21,15.21,0,0,0,86.81,7a1.56,1.56,0,0,0,.06-.41A1.1,1.1,0,0,0,85.93,5.44ZM84.32,4.33a.94.94,0,0,0,1.26.33.82.82,0,0,0,.51-.78,1.26,1.26,0,0,0-.1-.45,12.6,12.6,0,0,0-1.25-2A.88.88,0,0,0,84,1a1,1,0,0,0-.47.12.86.86,0,0,0-.51.78.73.73,0,0,0,.14.43A21.67,21.67,0,0,1,84.32,4.33Zm17.31,1.13H92.34c-.58,0-.86.47-.86,1.08s.28,1.1.86,1.1h8.39c.56,0,.7.19.7.7v2.31h-8.5c-.59,0-.86.47-.86,1.08s.27,1.08.86,1.08h8.5v2.6c0,.53-.14.65-.7.65H92.17c-.59,0-.88.49-.88,1.1s.29,1.11.88,1.11h9.46a1.91,1.91,0,0,0,2.15-2.13V7.58A1.9,1.9,0,0,0,101.63,5.46Zm7.76-.84a24.29,24.29,0,0,1,3.92,3.45,1.29,1.29,0,0,0,1,.47,1.31,1.31,0,0,0,1-.45,1.48,1.48,0,0,0,.39-1,1.38,1.38,0,0,0-.35-.92A19.62,19.62,0,0,0,111,2.6a1.24,1.24,0,0,0-.73-.23,1.3,1.3,0,0,0-1,.47,1.32,1.32,0,0,0-.35.9A1.05,1.05,0,0,0,109.39,4.62Zm14.94-.37a1.57,1.57,0,0,0-.52-.08c-.49,0-.87.28-1.12,1.06a14.26,14.26,0,0,1-4.58,7.28,15.92,15.92,0,0,1-8.21,2.84,1.22,1.22,0,0,0-1.17,1.3v.15A1.21,1.21,0,0,0,110.06,18h0a17.43,17.43,0,0,0,9.48-3.19,15.83,15.83,0,0,0,5.6-8.84,2.31,2.31,0,0,0,.07-.49A1.16,1.16,0,0,0,124.33,4.25Z"/></g></g></svg>