<svg xmlns="http://www.w3.org/2000/svg" viewBox="0 0 146.42 21.95"><defs><style>.cls-1{fill:#d42258;}</style></defs><g id="レイヤー_2" data-name="レイヤー 2"><g id="レイヤー_5" data-name="レイヤー 5"><path class="cls-1" d="M9.1,7.12A1.34,1.34,0,0,0,7.6,8.53a15.71,15.71,0,0,1-1.1,6.52,8.47,8.47,0,0,1-4.61,4.06,1.24,1.24,0,0,0-.84,1.22,2,2,0,0,0,.19.79,1.33,1.33,0,0,0,1.24.79,2.12,2.12,0,0,0,.74-.15,10.75,10.75,0,0,0,5.95-5.3,18.18,18.18,0,0,0,1.51-8C10.68,7.6,10.08,7.12,9.1,7.12Zm8-4.73H1.15C.48,2.39,0,2.94,0,3.85S.43,5.28,1.15,5.28H16.27c.48,0,.69.19.69.5a1.23,1.23,0,0,1-.14.5,9.25,9.25,0,0,1-4.28,3.85,1.28,1.28,0,0,0-.72,1.17,1.72,1.72,0,0,0,.22.79,1.39,1.39,0,0,0,1.19.74,1.58,1.58,0,0,0,.72-.17,12.16,12.16,0,0,0,5.83-5.78,4.35,4.35,0,0,0,.41-1.79,2.61,2.61,0,0,0-.53-1.65A3,3,0,0,0,17.06,2.39Zm23.12-.65a1.69,1.69,0,0,0-1-.35A1.53,1.53,0,0,0,38,1.93a28.78,28.78,0,0,1-6.26,5.31,37.48,37.48,0,0,1-8.89,4.25,1.39,1.39,0,0,0-1,1.39,1.62,1.62,0,0,0,.09.57,1.31,1.31,0,0,0,1.31.91,2.37,2.37,0,0,0,.67-.12,39.93,39.93,0,0,0,7.77-3.54v10c0,.91.62,1.26,1.55,1.26s1.53-.4,1.53-1.21v-12a30.24,30.24,0,0,0,5.68-5,1.4,1.4,0,0,0,.39-.93A1.38,1.38,0,0,0,40.18,1.74ZM48.74,9a2.58,2.58,0,1,0,2.58,2.58A2.57,2.57,0,0,0,48.74,9ZM75.52,1.6a1,1,0,0,0-.86-.45,1.2,1.2,0,0,0-.57.14,1.06,1.06,0,0,0-.58.91.87.87,0,0,0,.15.48,26,26,0,0,1,1.43,2.24,1,1,0,0,0,.91.53,1.16,1.16,0,0,0,.62-.17.91.91,0,0,0,.55-.86,1.66,1.66,0,0,0-.12-.55A21.53,21.53,0,0,0,75.52,1.6ZM78.43.45A1.13,1.13,0,0,0,77.55,0,1.17,1.17,0,0,0,77,.14a.92.92,0,0,0-.57.84,1,1,0,0,0,.17.55A16.86,16.86,0,0,1,78,3.73a1,1,0,0,0,.89.55,1.29,1.29,0,0,0,.59-.15A1,1,0,0,0,80,3.27a1.23,1.23,0,0,0-.12-.52A15.18,15.18,0,0,0,78.43.45Zm-3,17.44a1.54,1.54,0,0,0-.36,0,43.83,43.83,0,0,1-7.19.62c-4.3,0-4.66-.19-4.66-3.08V11.92A34.74,34.74,0,0,0,74.83,8.24,1.39,1.39,0,0,0,75.54,7a1.8,1.8,0,0,0-.26-.91,1.43,1.43,0,0,0-1.22-.72,1.93,1.93,0,0,0-.91.27A31.45,31.45,0,0,1,63.19,9V3.13c0-.91-.52-1.29-1.48-1.29s-1.48.38-1.48,1.29V15.62c0,4.8,1.07,5.74,7.41,5.74a44.34,44.34,0,0,0,7.83-.58,1.29,1.29,0,0,0,1.22-1.38,1.23,1.23,0,0,0,0-.27A1.24,1.24,0,0,0,75.4,17.89ZM98.57,5.06a1.11,1.11,0,0,0,1,.53,1.16,1.16,0,0,0,.52-.14,1,1,0,0,0,.6-.91,1.45,1.45,0,0,0-.12-.53,16,16,0,0,0-1.46-2.39,1.05,1.05,0,0,0-.88-.47,1.07,1.07,0,0,0-.55.14,1,1,0,0,0-.6.91.86.86,0,0,0,.17.5A25.66,25.66,0,0,1,98.57,5.06ZM84.71,4.44a33.87,33.87,0,0,1,4.81,2.49,1.47,1.47,0,0,0,.76.24,1.44,1.44,0,0,0,1.27-.82,1.58,1.58,0,0,0,.24-.81,1.38,1.38,0,0,0-.72-1.19,32.38,32.38,0,0,0-5-2.51,2.05,2.05,0,0,0-.62-.1,1.46,1.46,0,0,0-1.29.82,1.77,1.77,0,0,0-.19.74A1.17,1.17,0,0,0,84.71,4.44Zm2.92,8.46a1.6,1.6,0,0,0,.86.26,1.47,1.47,0,0,0,1.29-.76,2,2,0,0,0,.21-.86,1.3,1.3,0,0,0-.69-1.17A33,33,0,0,0,84,7.69a1.83,1.83,0,0,0-.6-.12,1.31,1.31,0,0,0-1.19.84A1.63,1.63,0,0,0,82,9.2a1.19,1.19,0,0,0,.74,1.1A38.66,38.66,0,0,1,87.63,12.9Zm12.83-6.55a2.4,2.4,0,0,0-.5-.07,1.35,1.35,0,0,0-1.32,1.15,15.2,15.2,0,0,1-4.94,7.83,18.55,18.55,0,0,1-9.87,3.4A1.27,1.27,0,0,0,82.52,20a.82.82,0,0,0,0,.22,1.4,1.4,0,0,0,1.53,1.36h.14a20.69,20.69,0,0,0,11.25-4,17.71,17.71,0,0,0,6-9.48,1.72,1.72,0,0,0,.08-.48A1.29,1.29,0,0,0,100.46,6.35Zm1.69-5.8a1.08,1.08,0,0,0-.88-.43,1.37,1.37,0,0,0-.53.12,1,1,0,0,0-.62.88.92.92,0,0,0,.17.53,13.23,13.23,0,0,1,1.29,2.2,1,1,0,0,0,.91.62,1.21,1.21,0,0,0,.57-.15,1,1,0,0,0,.55-.88,1.56,1.56,0,0,0-.12-.55A14.18,14.18,0,0,0,102.15.55Zm16.66,5.83H108c-.67,0-1,.55-1,1.26s.34,1.29,1,1.29h9.81c.65,0,.82.22.82.82v2.7h-9.94c-.69,0-1,.55-1,1.26s.32,1.27,1,1.27h9.94v3c0,.62-.17.77-.82.77h-10c-.69,0-1,.57-1,1.29s.33,1.29,1,1.29h11.06a2.23,2.23,0,0,0,2.51-2.49v-10A2.22,2.22,0,0,0,118.81,6.38ZM145.34,5a1.74,1.74,0,0,0-.59-.1c-.58,0-1,.34-1.32,1.25a16.65,16.65,0,0,1-5.35,8.5,18.52,18.52,0,0,1-9.6,3.32,1.43,1.43,0,0,0-1.36,1.53v.17A1.39,1.39,0,0,0,128.67,21h.05a20.38,20.38,0,0,0,11.08-3.73,18.69,18.69,0,0,0,6.55-10.34,3.05,3.05,0,0,0,.07-.58A1.35,1.35,0,0,0,145.34,5Zm-17.46.43a28,28,0,0,1,4.59,4,1.5,1.5,0,0,0,1.14.55,1.59,1.59,0,0,0,1.15-.53,1.75,1.75,0,0,0,.45-1.15,1.59,1.59,0,0,0-.4-1.07,23.42,23.42,0,0,0-5-4.21,1.58,1.58,0,0,0-.86-.26,1.54,1.54,0,0,0-1.17.55,1.54,1.54,0,0,0-.41,1.05A1.23,1.23,0,0,0,127.88,5.4Z"/></g></g></svg>