<svg xmlns="http://www.w3.org/2000/svg" viewBox="0 0 66 66"><path d="M20.5 27c.1-.4.2-.8.4-1.1l-1.4-.4c0 .3-.1.7-.2 1v.2h-.6c-1 0-2 .2-2.9.4 0-.7.1-1.5.2-2.2 2.1-.1 4.2-.3 6.3-.7v-1.3c-2 .4-4.1.7-6.1.8.1-.5.1-1 .2-1.3 0-.3.1-.5.2-.8H15v.8c0 .3-.1.8-.1 1.4h-1.2c-1 0-1.9-.1-2.9-.2V25c.7.1 2.1.1 2.8.1h1.1c-.1.8-.2 1.7-.2 2.6-2.4 1.1-4.4 3.4-4.4 5.7-.1 1.1.7 2.1 1.8 2.2h.2c1.1-.1 2.1-.4 3-1 .1.3.2.7.3 1l1.2-.4c-.1-.4-.3-.9-.4-1.4 1.7-1.6 3.1-3.5 3.9-5.7 1.4.3 2.5 1.5 2.5 3 0 2.3-2 3.9-5.1 4.2l.7 1.2c4-.7 5.7-2.8 5.7-5.4 0-2-1.4-3.7-3.4-4.1zm-8.1 7.2c-.7 0-1-.4-1-1.1 0-1.4 1.3-3.2 3-4.1v.3c0 1.3.2 2.7.4 4-.7.5-1.5.9-2.4.9zm3.5-1.8c-.2-1.1-.3-2.1-.3-3.2v-.7c1-.4 2-.6 3-.6h.3c-.6 1.7-1.6 3.2-3 4.5zm31-2.5c.2-.6.5-1.5.7-1.9l-3.3-.8c-.1.7-.2 1.5-.4 2.2h-1c-1.8 0-3.6.3-5.4.7.1-1.2.2-2.5.3-3.7 4.1-.2 8.1-.6 12.1-1.3V22c-3.8.8-7.8 1.3-11.7 1.4.1-.8.3-1.6.4-2.2.1-.5.2-1.1.4-1.6l-3.5-.1c0 .6 0 1.2-.1 1.8-.1.7-.2 1.4-.2 2.3h-1.8c-2 0-3.9-.2-5.9-.4l.1 3.2c1.5.1 4.1.2 5.7.2h1.6c-.1 1.5-.3 3-.3 4.6-4.7 2.2-8.4 6.7-8.4 11.1 0 3.1 1.9 4.5 4.2 4.5 1.9-.1 3.8-.6 5.5-1.6.2.6.3 1.2.5 1.7l3.1-.9c-.3-.8-.6-1.7-.8-2.7 3.3-2.9 5.8-6.6 7.3-10.7 2.5.6 4.2 2.8 4.3 5.4 0 3.9-3.3 7.1-9.6 7.8l1.8 2.8c8-1.2 11-5.7 11-10.5.1-3.9-2.5-7-6.6-8.2zM31.1 43.5c-1.2 0-1.8-.6-1.8-1.9 0-2.4 2.1-5.4 5.1-7.2 0 2.6.3 5.1.7 7.7-1.1.8-2.5 1.3-4 1.4zm6.8-3.7c-.3-2-.5-4-.5-6V33c1.7-.6 3.5-1 5.4-1h.2c-1.1 2.9-2.8 5.5-5.1 7.8z"/><path d="M32.8 1.2c17.6-.1 31.9 14.1 32 31.6s-14.1 31.9-31.6 32-31.9-14.1-32-31.6V33c0-17.5 14.1-31.7 31.6-31.8z" fill="none" stroke="#000" stroke-width="2" stroke-miterlimit="10"/></svg>