<svg xmlns="http://www.w3.org/2000/svg" viewBox="0 0 125.25 31.95"><g data-name="レイヤー 2"><path d="M3.82 29.66H1.46a.4.4 0 01-.41-.45v-1.75h2.07a.31.31 0 00.34-.32c0-.19-.14-.29-.34-.29H1.05v-1.48a.4.4 0 01.41-.44H3.6a.31.31 0 100-.61H1.27c-.71 0-1 .29-1 1v3.89c0 .73.27 1 1 1h2.55a.29.29 0 00.33-.21c0-.25-.15-.34-.33-.34zM8 26.2a.31.31 0 00-.3.22l-.59 1.64c-.16.46-.31.92-.47 1.37h-.11c-.14-.44-.28-.89-.44-1.33l-.63-1.68a.32.32 0 00-.3-.22.38.38 0 00-.4.31.6.6 0 00.06.23l1.39 3.5-.07.18c-.29.7-.49.93-.87.93h-.28a.26.26 0 00-.26.28.3.3 0 00.26.33h.28c.59 0 1.06-.31 1.45-1.31l1.56-4a.39.39 0 000-.18c.04-.13-.14-.27-.28-.27zm4.52 1.59a1.63 1.63 0 00-1.63-1.64A1.86 1.86 0 009 28.25c0 1.35.74 2.13 1.86 2.13a2.17 2.17 0 001.41-.5.22.22 0 00.11-.19.31.31 0 00-.31-.31.28.28 0 00-.21.08 1.4 1.4 0 01-1 .33c-.63 0-1.13-.48-1.16-1.35h2.06a.58.58 0 00.71-.65zm-.88.12H9.76a1.16 1.16 0 011.08-1.22 1 1 0 011 1 .21.21 0 01-.25.22zm8-3.64a.36.36 0 00-.32.27l-1.21 3.68c-.14.45-.28.92-.42 1.36h-.06c-.13-.45-.26-.92-.4-1.37l-1.13-3.67a.36.36 0 00-.32-.27c-.25 0-.43.13-.43.33a.43.43 0 000 .19l1.62 5a.63.63 0 00.64.51.65.65 0 00.63-.52l1.74-5a.71.71 0 000-.2c.02-.18-.1-.31-.36-.31zm1.82 0a.51.51 0 10.51.5.5.5 0 00-.53-.51zm0 1.94a.32.32 0 00-.35.35V30a.36.36 0 00.71 0v-3.45a.32.32 0 00-.39-.35zm3.31 1.72l-.28-.06c-.65-.13-.83-.27-.83-.64s.31-.53.72-.53a1.12 1.12 0 01.9.38.3.3 0 00.23.1.33.33 0 00.31-.32.29.29 0 00-.1-.23 1.83 1.83 0 00-1.34-.47c-.81 0-1.39.43-1.39 1.07s.31 1 1.21 1.22h.27c.64.14.81.35.81.67s-.27.66-.83.66a1.28 1.28 0 01-1.05-.44.27.27 0 00-.24-.13.32.32 0 00-.31.29.36.36 0 00.09.24 1.92 1.92 0 001.51.6c1 0 1.5-.51 1.5-1.22s-.38-1.03-1.21-1.2zm2.63-1.72a.33.33 0 00-.36.35V30a.36.36 0 00.72 0v-3.45a.33.33 0 00-.39-.35zm0-1.94a.51.51 0 100 1 .51.51 0 100-1zm3.34 1.89a1.86 1.86 0 00-1.84 2.1 1.88 1.88 0 001.84 2.13c1.1 0 1.84-.81 1.84-2.13a1.85 1.85 0 00-1.86-2.11zm0 3.66c-.68 0-1.1-.6-1.1-1.56s.42-1.54 1.1-1.54 1.11.59 1.11 1.54-.45 1.55-1.13 1.55zm6.26-.67v-1.29a1.78 1.78 0 00-.37-1.34 1.25 1.25 0 00-1-.37 1.42 1.42 0 00-1.23.85v-.45a.33.33 0 00-.34-.35.32.32 0 00-.34.35V30a.31.31 0 00.35.35.32.32 0 00.36-.35v-2a1.22 1.22 0 011.13-1.28.64.64 0 01.5.21 1.4 1.4 0 01.21.95v1.25a3.65 3.65 0 00.08.89c0 .2.14.28.33.28s.4-.12.4-.26a.45.45 0 000-.12 3.77 3.77 0 01-.08-.77zM17.27 4.35a2.24 2.24 0 00-.45-1.41A2.55 2.55 0 0014.59 2H1c-.59 0-1 .51-1 1.29s.37 1.23 1 1.23h12.92c.4 0 .59.16.59.43a1 1 0 01-.12.42 7.89 7.89 0 01-3.66 3.29 1.11 1.11 0 00-.62 1 1.45 1.45 0 00.19.67 1.17 1.17 0 001 .63 1.36 1.36 0 00.61-.14 10.38 10.38 0 005-4.95 3.83 3.83 0 00.36-1.52zM2.13 18.74a2 2 0 00.63-.12 9.29 9.29 0 005.09-4.54 15.71 15.71 0 001.28-6.81c0-.77-.51-1.18-1.34-1.18a1.15 1.15 0 00-1.29 1.2 13.27 13.27 0 01-.94 5.58 7.22 7.22 0 01-3.95 3.48 1.05 1.05 0 00-.71 1 1.72 1.72 0 00.16.67 1.15 1.15 0 001.07.72zM34.92 2.43a1.16 1.16 0 00-.55-.94 1.5 1.5 0 00-.86-.3 1.29 1.29 0 00-1 .47 25 25 0 01-5.35 4.53 32.13 32.13 0 01-7.6 3.64 1.17 1.17 0 00-.88 1.17 1.36 1.36 0 00.08.49 1.11 1.11 0 001.12.78 2.08 2.08 0 00.58-.1 34.43 34.43 0 006.64-3v8.53c0 .77.53 1.08 1.32 1.08s1.31-.35 1.31-1V7.48a26.44 26.44 0 004.87-4.25 1.24 1.24 0 00.32-.8zm6.77 5.27a2.21 2.21 0 102.21 2.21 2.2 2.2 0 00-2.21-2.21zm22.81 7.6a1.12 1.12 0 00-.31 0 38 38 0 01-6.15.53c-3.68 0-4-.17-4-2.64v-3A29.87 29.87 0 0064 7.05 1.2 1.2 0 0064.62 6a1.5 1.5 0 00-.23-.78 1.21 1.21 0 00-1-.61 1.75 1.75 0 00-.78.22 26.74 26.74 0 01-8.56 2.87v-5c0-.78-.45-1.11-1.26-1.11s-1.27.33-1.27 1.11v10.66c0 4.11.92 4.91 6.33 4.91a39.42 39.42 0 006.71-.49 1.1 1.1 0 001-1.19.82.82 0 000-.22 1.06 1.06 0 00-1.06-1.07zm.1-13.93a.89.89 0 00-.74-.37 1.14 1.14 0 00-.49.12.92.92 0 00-.49.78.75.75 0 00.12.41c.43.63.9 1.31 1.23 1.92a.85.85 0 00.78.45 1 1 0 00.53-.14.8.8 0 00.46-.76 1.42 1.42 0 00-.1-.47 18.38 18.38 0 00-1.3-1.94zm2.49-1a.94.94 0 00-.76-.37.91.91 0 00-.44.12.78.78 0 00-.5.72.89.89 0 00.15.47 14.37 14.37 0 011.18 1.88.85.85 0 00.76.47 1.19 1.19 0 00.52-.12.84.84 0 00.47-.74 1.22 1.22 0 00-.1-.45A13.08 13.08 0 0067.09.39zm5.37 3.43a28.73 28.73 0 014.11 2.13 1.19 1.19 0 001.74-.49 1.34 1.34 0 00.2-.7 1.18 1.18 0 00-.61-1 27 27 0 00-4.31-2.15 1.75 1.75 0 00-.53-.08 1.28 1.28 0 00-1.11.7 1.54 1.54 0 00-.16.63 1 1 0 00.67.96zM75 11a1.34 1.34 0 00.73.23 1.29 1.29 0 001.11-.65 1.71 1.71 0 00.16-.71 1.11 1.11 0 00-.59-1 28.41 28.41 0 00-4.54-2.29 1.54 1.54 0 00-.51-.1 1.11 1.11 0 00-1 .71 1.52 1.52 0 00-.19.68 1 1 0 00.64.94A34.16 34.16 0 0175 11zM87.38.47a.92.92 0 00-.76-.37 1.09 1.09 0 00-.44.1.89.89 0 00-.54.76.74.74 0 00.15.45 11.58 11.58 0 011.1 1.88.83.83 0 00.78.53 1.14 1.14 0 00.49-.12.85.85 0 00.47-.76 1.37 1.37 0 00-.1-.47 13 13 0 00-1.15-2zm-1.45 5a1.38 1.38 0 00-.43-.07 1.15 1.15 0 00-1.12 1 13.11 13.11 0 01-4.23 6.71A15.94 15.94 0 0171.71 16a1.1 1.1 0 00-1.13 1.18.58.58 0 000 .19 1.21 1.21 0 001.31 1.16H72a17.7 17.7 0 009.63-3.39A15.21 15.21 0 0086.81 7a1.56 1.56 0 00.06-.41 1.1 1.1 0 00-.94-1.15zm-1.61-1.14a.94.94 0 001.26.33.82.82 0 00.51-.78 1.26 1.26 0 00-.1-.45 12.6 12.6 0 00-1.25-2A.88.88 0 0084 1a1 1 0 00-.47.12.86.86 0 00-.51.78.73.73 0 00.14.43 21.67 21.67 0 011.16 2zm17.31 1.13h-9.29c-.58 0-.86.47-.86 1.08s.28 1.1.86 1.1h8.39c.56 0 .7.19.7.7v2.31h-8.5c-.59 0-.86.47-.86 1.08s.27 1.08.86 1.08h8.5v2.6c0 .53-.14.65-.7.65h-8.56c-.59 0-.88.49-.88 1.1s.29 1.11.88 1.11h9.46a1.91 1.91 0 002.15-2.13V7.58a1.9 1.9 0 00-2.15-2.12zm7.76-.84a24.29 24.29 0 013.92 3.45 1.29 1.29 0 001 .47 1.31 1.31 0 001-.45 1.48 1.48 0 00.39-1 1.38 1.38 0 00-.35-.92A19.62 19.62 0 00111 2.6a1.24 1.24 0 00-.73-.23 1.3 1.3 0 00-1 .47 1.32 1.32 0 00-.35.9 1.05 1.05 0 00.47.88zm14.94-.37a1.57 1.57 0 00-.52-.08c-.49 0-.87.28-1.12 1.06a14.26 14.26 0 01-4.58 7.28 15.92 15.92 0 01-8.21 2.84 1.22 1.22 0 00-1.17 1.3v.15a1.21 1.21 0 001.33 1.2 17.43 17.43 0 009.48-3.19 15.83 15.83 0 005.6-8.84 2.31 2.31 0 00.07-.49 1.16 1.16 0 00-.88-1.23z" fill="#d42258" data-name="レイヤー 4"/></g></svg>