<svg xmlns="http://www.w3.org/2000/svg" viewBox="0 0 146.42 21.95"><g data-name="レイヤー 2"><path d="M9.1 7.12a1.34 1.34 0 00-1.5 1.41 15.71 15.71 0 01-1.1 6.52 8.47 8.47 0 01-4.61 4.06 1.24 1.24 0 00-.84 1.22 2 2 0 00.19.79 1.33 1.33 0 001.24.79 2.12 2.12 0 00.74-.15 10.75 10.75 0 005.95-5.3 18.18 18.18 0 001.51-8c0-.86-.6-1.34-1.58-1.34zm8-4.73H1.15C.48 2.39 0 2.94 0 3.85s.43 1.43 1.15 1.43h15.12c.48 0 .69.19.69.5a1.23 1.23 0 01-.14.5 9.25 9.25 0 01-4.28 3.85 1.28 1.28 0 00-.72 1.17 1.72 1.72 0 00.22.79 1.39 1.39 0 001.19.74 1.58 1.58 0 00.72-.17 12.16 12.16 0 005.83-5.78 4.35 4.35 0 00.41-1.79 2.61 2.61 0 00-.53-1.65 3 3 0 00-2.6-1.05zm23.12-.65a1.69 1.69 0 00-1-.35 1.53 1.53 0 00-1.22.54 28.78 28.78 0 01-6.26 5.31 37.48 37.48 0 01-8.89 4.25 1.39 1.39 0 00-1 1.39 1.62 1.62 0 00.09.57 1.31 1.31 0 001.31.91 2.37 2.37 0 00.67-.12 39.93 39.93 0 007.77-3.54v10c0 .91.62 1.26 1.55 1.26s1.53-.4 1.53-1.21v-12a30.24 30.24 0 005.68-5 1.4 1.4 0 00.39-.93 1.38 1.38 0 00-.66-1.08zM48.74 9a2.58 2.58 0 102.58 2.58A2.57 2.57 0 0048.74 9zm26.78-7.4a1 1 0 00-.86-.45 1.2 1.2 0 00-.57.14 1.06 1.06 0 00-.58.91.87.87 0 00.15.48 26 26 0 011.43 2.24 1 1 0 00.91.53 1.16 1.16 0 00.62-.17.91.91 0 00.55-.86 1.66 1.66 0 00-.12-.55 21.53 21.53 0 00-1.53-2.27zM78.43.45a1.13 1.13 0 00-.88-.45 1.17 1.17 0 00-.55.14.92.92 0 00-.57.84 1 1 0 00.17.55 16.86 16.86 0 011.4 2.2 1 1 0 00.89.55 1.29 1.29 0 00.59-.15 1 1 0 00.52-.86 1.23 1.23 0 00-.12-.52 15.18 15.18 0 00-1.45-2.3zm-3 17.44a1.54 1.54 0 00-.36 0 43.83 43.83 0 01-7.19.62c-4.3 0-4.66-.19-4.66-3.08v-3.51a34.74 34.74 0 0011.61-3.68A1.39 1.39 0 0075.54 7a1.8 1.8 0 00-.26-.91 1.43 1.43 0 00-1.22-.72 1.93 1.93 0 00-.91.27A31.45 31.45 0 0163.19 9V3.13c0-.91-.52-1.29-1.48-1.29s-1.48.38-1.48 1.29v12.49c0 4.8 1.07 5.74 7.41 5.74a44.34 44.34 0 007.83-.58 1.29 1.29 0 001.22-1.38 1.23 1.23 0 000-.27 1.24 1.24 0 00-1.29-1.24zM98.57 5.06a1.11 1.11 0 001 .53 1.16 1.16 0 00.52-.14 1 1 0 00.6-.91 1.45 1.45 0 00-.12-.53 16 16 0 00-1.46-2.39 1.05 1.05 0 00-.88-.47 1.07 1.07 0 00-.55.14 1 1 0 00-.6.91.86.86 0 00.17.5 25.66 25.66 0 011.32 2.36zm-13.86-.62a33.87 33.87 0 014.81 2.49 1.47 1.47 0 00.76.24 1.44 1.44 0 001.27-.82 1.58 1.58 0 00.24-.81 1.38 1.38 0 00-.72-1.19 32.38 32.38 0 00-5-2.51 2.05 2.05 0 00-.62-.1 1.46 1.46 0 00-1.29.82 1.77 1.77 0 00-.19.74 1.17 1.17 0 00.74 1.14zm2.92 8.46a1.6 1.6 0 00.86.26 1.47 1.47 0 001.29-.76 2 2 0 00.21-.86 1.3 1.3 0 00-.69-1.17A33 33 0 0084 7.69a1.83 1.83 0 00-.6-.12 1.31 1.31 0 00-1.19.84 1.63 1.63 0 00-.21.79 1.19 1.19 0 00.74 1.1 38.66 38.66 0 014.89 2.6zm12.83-6.55a2.4 2.4 0 00-.5-.07 1.35 1.35 0 00-1.32 1.15 15.2 15.2 0 01-4.94 7.83 18.55 18.55 0 01-9.87 3.4A1.27 1.27 0 0082.52 20a.82.82 0 000 .22 1.4 1.4 0 001.53 1.36h.14a20.69 20.69 0 0011.25-4 17.71 17.71 0 006-9.48 1.72 1.72 0 00.08-.48 1.29 1.29 0 00-1.06-1.27zm1.69-5.8a1.08 1.08 0 00-.88-.43 1.37 1.37 0 00-.53.12 1 1 0 00-.62.88.92.92 0 00.17.53 13.23 13.23 0 011.29 2.2 1 1 0 00.91.62 1.21 1.21 0 00.57-.15 1 1 0 00.55-.88 1.56 1.56 0 00-.12-.55 14.18 14.18 0 00-1.34-2.34zm16.66 5.83H108c-.67 0-1 .55-1 1.26s.34 1.29 1 1.29h9.81c.65 0 .82.22.82.82v2.7h-9.94c-.69 0-1 .55-1 1.26s.32 1.27 1 1.27h9.94v3c0 .62-.17.77-.82.77h-10c-.69 0-1 .57-1 1.29s.33 1.29 1 1.29h11.06a2.23 2.23 0 002.51-2.49v-10a2.22 2.22 0 00-2.57-2.46zM145.34 5a1.74 1.74 0 00-.59-.1c-.58 0-1 .34-1.32 1.25a16.65 16.65 0 01-5.35 8.5 18.52 18.52 0 01-9.6 3.32 1.43 1.43 0 00-1.36 1.53v.17a1.39 1.39 0 001.55 1.33h.05a20.38 20.38 0 0011.08-3.73 18.69 18.69 0 006.55-10.34 3.05 3.05 0 00.07-.58A1.35 1.35 0 00145.34 5zm-17.46.43a28 28 0 014.59 4 1.5 1.5 0 001.14.55 1.59 1.59 0 001.15-.53 1.75 1.75 0 00.45-1.15 1.59 1.59 0 00-.4-1.07 23.42 23.42 0 00-5-4.21 1.58 1.58 0 00-.86-.26 1.54 1.54 0 00-1.17.55 1.54 1.54 0 00-.41 1.05 1.23 1.23 0 00.51 1.04z" fill="#d42258" data-name="レイヤー 5"/></g></svg>