<svg xmlns="http://www.w3.org/2000/svg" viewBox="0 0 1659.26 1400"><defs><style>.cls-1{fill:#3aaded;}.cls-2{font-size:385.12px;}.cls-2,.cls-3{fill:#fff;font-family:HiraMaruStdN-W6-83pv-RKSJ-H, Hiragino Maru Gothic StdN;}.cls-3{font-size:159.33px;text-decoration:underline;}.cls-4{letter-spacing:-0.02em;}.cls-5{letter-spacing:-0.05em;}.cls-6{letter-spacing:-0.03em;}.cls-7{letter-spacing:-0.01em;}.cls-8{letter-spacing:-0.02em;}.cls-9{letter-spacing:-0.02em;}</style></defs><g id="レイヤー_2" data-name="レイヤー 2"><g id="Layer_1" data-name="Layer 1"><path class="cls-1" d="M829.63,25.93c-443.88,0-803.7,255.36-803.7,570.37,0,204.59,151.89,384,379.92,484.6a576.26,576.26,0,0,1-26.48,76.51c-59.59,140.25-172,216.41-172,216.41s271.19,14.7,485.15-185.23c9.9-9.24,19.24-18.3,28.3-27.28,35.57,3.43,71.86,5.36,108.77,5.36,443.88,0,803.7-255.38,803.7-570.37S1273.51,25.93,829.63,25.93Z"/><path class="cls-1" d="M220.07,1400c-9.12,0-14.06-.28-14.06-.28l-76.56-4.3,63.43-43c1-.73,107-74.05,162.63-205.1,7.34-17.28,13.78-34.73,19.21-52.08C139.58,984.62,0,799.42,0,596.3,0,267.5,372.17,0,829.63,0s829.63,267.5,829.63,596.3-372.17,596.29-829.63,596.29c-32.23,0-65.55-1.47-99.17-4.35q-9.76,9.52-20.21,19.29C519.14,1386.12,286.74,1400,220.07,1400ZM829.63,51.85C400.76,51.85,51.85,296.09,51.85,596.3c0,187.86,136.25,360.15,364.48,460.88l20.33,9-5.76,21.45a603.68,603.68,0,0,1-27.68,80c-33.72,79.4-83.12,139-121.86,177.22,93.81-9.72,255.34-46,393.5-175.12,9.72-9.07,18.89-18,27.77-26.76l8.64-8.53,12.07,1.17c36.08,3.45,71.84,5.21,106.29,5.21,428.87,0,777.78-244.23,777.78-544.44S1258.5,51.85,829.63,51.85Z"/><text class="cls-2" transform="translate(425.81 568.38)">直送</text><text class="cls-3" transform="translate(264.42 857.41)">3～<tspan class="cls-4" x="268.16" y="0">4</tspan><tspan class="cls-5" x="373.48" y="0">日</tspan><tspan class="cls-6" x="525.32" y="0">で</tspan><tspan class="cls-7" x="679.88" y="0">お</tspan><tspan class="cls-8" x="837.46" y="0">届</tspan><tspan class="cls-9" x="993.28" y="0">け</tspan></text></g></g></svg>