<?xml version="1.0" encoding="utf-8"?>
<!-- Generator: Adobe Illustrator 24.3.0, SVG Export Plug-In . SVG Version: 6.00 Build 0)  -->
<svg version="1.1" id="レイヤー_1" xmlns="http://www.w3.org/2000/svg" xmlns:xlink="http://www.w3.org/1999/xlink" x="0px"
	 y="0px" viewBox="0 0 1659.3 1400" style="enable-background:new 0 0 1659.3 1400;" xml:space="preserve">
<style type="text/css">
	.st0{fill:#3AADED;}
	.st1{enable-background:new    ;}
	.st2{fill:#FFFFFF;}
</style>
<path class="st0" d="M829.6,25.9c-443.9,0-803.7,255.4-803.7,570.4c0,204.6,151.9,384,379.9,484.6c-7,26.1-15.9,51.7-26.5,76.5
	c-59.6,140.2-172,216.4-172,216.4s271.2,14.7,485.2-185.2c9.9-9.2,19.2-18.3,28.3-27.3c35.6,3.4,71.9,5.4,108.8,5.4
	c443.9,0,803.7-255.4,803.7-570.4S1273.5,25.9,829.6,25.9z"/>
<path class="st0" d="M220.1,1400c-9.1,0-14.1-0.3-14.1-0.3l-76.6-4.3l63.4-43c1-0.7,107-74.1,162.6-205.1
	c7.3-17.3,13.8-34.7,19.2-52.1C139.6,984.6,0,799.4,0,596.3C0,267.5,372.2,0,829.6,0s829.6,267.5,829.6,596.3
	s-372.2,596.3-829.6,596.3c-32.2,0-65.5-1.5-99.2-4.3c-6.5,6.3-13.2,12.8-20.2,19.3C519.1,1386.1,286.7,1400,220.1,1400z
	 M829.6,51.8c-428.9,0-777.8,244.2-777.8,544.5c0,187.9,136.2,360.1,364.5,460.9l20.3,9l-5.8,21.4c-7.3,27.3-16.6,54-27.7,80
	c-33.7,79.4-83.1,139-121.9,177.2c93.8-9.7,255.3-46,393.5-175.1c9.7-9.1,18.9-18,27.8-26.8l8.6-8.5l12.1,1.2
	c36.1,3.4,71.8,5.2,106.3,5.2c428.9,0,777.8-244.2,777.8-544.4S1258.5,51.8,829.6,51.8z"/>
<g class="st1">
	<path class="st2" d="M777,270.3c9.2,0,14.6,7.3,14.6,18.5c0,11.6-5.4,18.9-14.6,18.9H643.4c-2.3,8.1-5,16.6-7.3,24.6h83.2
		c26.2,0,37.7,9.2,37.7,32v134.4c0,23.9-11.6,33.5-37.7,33.5H572.9c-25.4,0-37.4-9.6-37.4-33.5V364.3c0-22.7,11.9-32,37.4-32h21.6
		c2.7-8.1,5-16.6,6.9-24.6H459.3c-9.2,0-14.6-7.3-14.6-18.9c0-11.2,5.4-18.5,14.6-18.5h150.6c1.2-5.8,2.3-11.6,3.1-17.3
		c1.5-8.9,8.1-13.1,18.9-13.1c1.5,0,3.1,0,4.2,0c12.3,1.2,19.3,6.5,19.3,14.6c0,1.2,0,1.9-0.4,2.7c-0.8,4.2-1.5,8.5-2.3,13.1H777z
		 M500.5,591.5c-27.3,0-42-11.9-42-39.7V357c0-10.4,8.5-16.2,21.6-16.2c13.5,0,22,5.8,22,16.2v183.3c0,9.6,3.9,13.1,13.5,13.1h262.3
		c10.4,0,15,7.3,15,18.9c0,11.9-4.6,19.3-15,19.3H500.5z M716.6,388.1v-15.8c0-6.2-2.7-7.7-10.4-7.7H586.4c-7.7,0-10.4,1.5-10.4,7.7
		v15.8H716.6z M716.6,442.8v-23.5H576v23.5H716.6z M576,491.4c0,6.2,2.7,8.1,10.4,8.1h119.8c7.7,0,10.4-1.9,10.4-8.1V474H576V491.4z
		"/>
	<path class="st2" d="M914.1,516c11.9,20.4,32,30,61.6,33.9c19.3,2.3,46.2,3.5,72,3.5c40.8,0,84-1.9,117.8-4.6c1.2,0,1.9,0,3.1,0
		c11.6,0,17.7,6.5,18.1,20c0,0.4,0,0.8,0,1.2c0,12.3-6.9,19.6-20.8,20.4c-32.7,1.5-78.9,2.7-119.8,2.7c-27,0-53.5-1.5-77.8-4.2
		c-30-3.5-58.9-15.8-75.5-41.2c-10.8,13.9-26.2,29.7-40.4,40.8c-3.1,2.3-6.9,3.9-11.2,3.9c-5,0-10.8-2.3-15.8-8.9
		c-3.5-4.6-5-9.6-5-14.2c0-6.2,2.3-11.2,6.5-14.2c14.2-10,32.3-26.2,45.4-41.6v-74.7c0-8.1-1.5-10-9.6-10h-25.4
		c-9.6,0-15.8-7.3-15.8-19.3c0-12.3,6.2-19.3,15.8-19.3h42.4c24.6,0,34.3,11.6,34.3,37.4V516z M916.8,308.4
		c2.7,3.9,3.9,8.1,3.9,12.3c0,6.2-3.1,12.3-8.9,16.9c-5,4.2-10.4,6.2-15.4,6.2c-5.8,0-11.2-2.7-15-8.5
		c-12.7-18.9-28.9-37.7-42.7-51.6c-3.9-3.9-5.8-8.1-5.8-12.7c0-5.4,2.7-10.4,8.1-15.4c5-4.2,10.4-6.2,15.8-6.2c5,0,10,1.9,13.9,5.4
		C886.8,269.5,906.4,292.6,916.8,308.4z M1072.4,424c19.6,34.7,53.9,57.4,89.7,68.9c8.1,2.3,13.1,9.6,13.1,18.1
		c0,3.1-0.4,6.2-1.5,9.2c-3.9,10-11.2,14.6-20,14.6c-3.1,0-6.5-0.8-10-1.5c-37-12.3-73.6-38.9-97.4-80.5
		c-15.4,33.5-43.1,60.1-78.6,77c-3.9,2.3-7.7,3.1-11.6,3.1c-8.1,0-14.6-4.6-18.9-13.1c-1.5-3.5-2.3-6.9-2.3-10
		c0-7.7,4.6-13.9,11.6-17.3c35.4-16.2,57-37,68.5-66.2l0.8-2.3h-72.4c-9.6,0-15-7.3-15-18.9c0-11.6,5.4-19.3,15-19.3h80.9
		c1.2-15,1.5-30,1.9-45.1h-75.1c-9.2,0-14.6-7.7-14.6-18.9s5.4-18.1,14.6-18.1h39.3c-5.8-11.9-13.9-26.2-21.2-38.1
		c-1.2-2.3-1.9-4.6-1.9-7.3c0-5.8,3.9-11.6,12.3-14.6c3.9-1.5,7.7-2.3,11.2-2.3c6.9,0,12.7,3.1,16.2,8.9
		c10,16.2,21.6,37.7,26.6,53.5h27.7c11.2-16.2,20.4-35,26.6-50.5c3.1-7.3,9.2-11.9,18.1-11.9c2.3,0,5,0.4,7.7,0.8
		c10.8,2.7,16.2,8.9,16.2,15.8c0,1.5-0.4,3.1-0.8,4.6c-5,12.7-13.9,27.7-22.7,41.2h47c9.6,0,14.6,6.5,14.6,18.1
		c0,11.2-5,18.9-14.6,18.9h-87c0,15-0.4,30-2.3,45.1h98.2c9.6,0,15.4,7.3,15.4,19.3c0,11.2-5.8,18.9-15.4,18.9H1072.4z"/>
</g>
<g>
	<g>
		<path class="st2" d="M323.4,784.9c0.3,0,0.8,0,1.1,0c14.3,0,23.6-6.9,23.6-19.3c0-11.5-8.8-17.7-22.1-17.7
			c-12.9,0-19.3,5.6-22.8,14c-1.6,3.7-4.3,5.1-7.6,5.1c-1.9,0-4-0.5-6.1-1.3c-4.3-1.6-7-4.3-7-8c0-1.3,0.3-2.7,1-4.1
			c4.9-11.3,16.6-23.9,43.2-23.9c25.7,0,42.9,13.1,42.9,33.8c0,15.9-7.8,26.3-24.4,30.4c18.8,2.4,28,13.7,28,32.2
			c0,21.4-16.1,37.3-47.8,37.3c-28.2,0-41.3-13.1-46.4-26c-0.5-1.3-0.6-2.4-0.6-3.5c0-4.5,3.5-7.8,8.4-8.9c1.6-0.3,3-0.5,4.5-0.5
			c4.3,0,7.5,1.9,9.1,6.1c3.5,8.8,11,14.2,25.7,14.2c14.8,0,25.2-7.5,25.2-20.7c0-13.1-10-19.8-26.3-19.8c-0.5,0-0.8,0-1.3,0
			l-8.9,0.2c-5.4,0.2-8.3-4.6-8.3-10c0-5.3,2.9-9.9,8.3-9.7L323.4,784.9z"/>
		<path class="st2" d="M464.3,788.3c12.1,6.7,19.1,10.7,27.2,10.7c10,0,17.2-5.3,24.4-14.5c1.6-1.9,3.7-2.9,6.1-2.9
			c2.2,0,4.8,1,7.2,2.9c2.4,2.1,3.7,4.6,3.7,7.2c0,1.9-0.6,3.8-2.1,5.4c-9.7,11.8-21.4,20.6-39.2,20.6c-11,0-19.6-3-35.4-12.3
			c-13.5-7.8-19-10.2-27.1-10.2c-9.9,0-17.2,5.7-23.7,13.5c-1.6,1.9-3.7,2.9-5.9,2.9c-2.4,0-4.9-1-7.3-3c-2.2-2.1-3.5-4.5-3.5-7
			c0-1.9,0.8-4,2.2-5.7c9.2-11,22.5-19.3,37.9-19.3C441.3,776.5,449.8,780.3,464.3,788.3z"/>
		<path class="st2" d="M272.4,877.3v-8h268.2v8H272.4z"/>
	</g>
	<g class="st1">
		<path class="st2" d="M554.4,831c-6.5,0-10.5-3.7-10.5-11.2c0-7,2.2-11,6.2-16.4l47-63.9c4.8-6.4,8.3-9.6,17-9.6
			c7.5,0,12.1,3.3,12.1,11.8v70.9h11.8c5.4,0,7.6,3.8,7.6,8.9c0,5.3-2.2,9.6-7.6,9.6h-11.8v22.1c0,5.6-3.8,8.4-10.4,8.4
			c-6.7,0-10.4-2.9-10.4-8.4V831H554.4z M571.6,805.3c-1.6,2.4-4.1,4.9-6.7,7.8c3.3-0.3,7.3-0.3,10.2-0.3h30.6v-33.6
			c0-7.5,0.6-18.5,1.4-27.2c-3.3,5.9-7.5,13.1-11.8,19.3L571.6,805.3z"/>
		<path class="st2" d="M540.6,877.3v-8h105.8v8H540.6z"/>
	</g>
	<g class="st1">
		<path class="st2" d="M780.5,846.1c0,12.7-6.1,18.2-18.2,18.2h-80.8c-12.1,0-18.2-5.4-18.2-18.2v-98.5c0-12.9,6.1-18.3,18.2-18.3
			h80.8c12.1,0,18.2,5.4,18.2,18.3V846.1z M762.1,786.3v-34.6c0-3.8-1.9-5.1-5.6-5.1h-69c-3.8,0-5.7,1.3-5.7,5.1v34.6H762.1z
			 M681.8,841.8c0,4,1.9,5.1,5.7,5.1h69c3.7,0,5.6-1.1,5.6-5.1v-38.2h-80.3V841.8z"/>
		<path class="st2" d="M645.9,877.3v-8h144.2v8H645.9z"/>
	</g>
	<g class="st1">
		<path class="st2" d="M880.6,755.1c-6.5,1.3-12.6,1.9-17.7,2.5c-20.1,1.9-39.7,3.7-57.8,5.1c-0.3,0-0.5,0-0.8,0
			c-5.6,0-9.1-3-9.6-8.6c0-0.3,0-0.8,0-1.1c0-5.3,3.2-9.2,8.1-9.7c36.3-2.9,80.6-5.6,118.1-7c0.2,0,0.3,0,0.5,0c7,0,10,3.3,10.4,9.1
			c0,0.2,0,0.5,0,0.6c0,4.9-1.9,9.4-9.1,9.9c-2.7,0.3-5.4,0.6-8.8,1.3c-31.5,5.4-55.1,26.3-55.1,50.2c0,14.3,7.3,23.4,19,28.4
			c7.6,3.3,17.8,4.9,27.9,5.1c6.4,0,9.6,4.1,9.6,9.6c0,0.3,0,0.8,0,1.1c-0.5,6.1-4,9.9-10.8,9.9c-14.5,0-26.9-2.5-36.8-7.3
			c-18.3-8.8-28.7-23.7-28.7-44.5c0-22.3,15-43.5,41.9-53.7L880.6,755.1z M904.1,773.9c2.1,0,4,0.8,5.4,2.5
			c4,4.5,8.6,10.4,11.5,15.1c0.8,1.4,1.1,2.9,1.1,4.1c0,2.5-1.1,4.6-3,6.1c-1.4,0.6-2.9,1.1-4.5,1.1c-2.2,0-4.6-1-6.1-3.3
			c-2.9-4.6-7-10.4-10.7-14.8c-1-1.3-1.4-2.5-1.4-3.8c0-2.2,1.3-4.5,3.5-5.7C901.3,774.4,902.7,773.9,904.1,773.9z M922.3,763.9
			c2.1,0,4,0.8,5.6,2.5c3.8,4.1,7.6,9.7,10.5,14.3c1,1.4,1.3,2.9,1.3,4.1c0,2.4-1.1,4.3-3,5.7c-1.3,0.8-2.7,1.3-4.1,1.3
			c-2.4,0-4.6-1.1-6.1-3.5c-3-4.8-6.7-10-10.2-13.9c-1-1.3-1.4-2.5-1.4-3.8c0-2.2,1.3-4.5,3.5-5.7
			C919.6,764.2,921,763.9,922.3,763.9z"/>
		<path class="st2" d="M789.7,877.3v-8h148.7v8H789.7z"/>
	</g>
	<g class="st1">
		<path class="st2" d="M984,770.9c-9.1,0.5-19.8,0.8-28.2,0.8c-4.9,0-8-3.7-8-8.8c0-5.4,2.5-9.2,7.8-9.2c8.1,0,18.6-0.3,28.4-1V732
			c0-5.1,3.5-7.8,8.9-7.8c5.7,0,9.1,2.7,9.1,7.8v19.4c8.6-0.8,17-1.8,24.1-3c0.6-0.2,1.3-0.2,1.9-0.2c4.5,0,7.2,2.5,8,7.3
			c0.2,0.8,0.2,1.6,0.2,2.2c0,4.8-2.7,7.3-7.2,8.1c-8,1.4-17.4,2.5-26.9,3.5v22c10.4-2.7,20.9-4.3,30.9-4.3c29.6,0,47,14.7,47,38.4
			c0,23.4-14.8,37.9-35.7,37.9c-11.6,0-21.8-4.3-28.8-12.4c-1.8-2.1-2.5-4.3-2.5-6.4c0-2.5,1.3-4.9,3.3-6.9c2.2-1.9,4.5-2.9,6.7-2.9
			s4.5,1,6.2,2.9c4.8,4.8,9.2,7,14.8,7c8.9,0,16.7-7.2,16.7-19.1c0-13.5-9.6-22.3-28.8-22.3c-10,0-20.7,1.9-29.8,5.3V842
			c0,14.7-7.8,22.5-21.2,22.5c-6.4,0-13.5-2.2-20.7-7.2c-8.3-5.4-13.9-12.7-13.9-22.8c0-5.1,1.9-10,5.3-14.8
			c6.5-8.8,18.3-17.4,32.5-22.9V770.9z M984,815c-8.1,3.8-14.3,8.6-17.2,12.7c-1.8,2.2-2.5,4.8-2.5,7c0,3.3,2.4,6.2,5.4,8.3
			c2.7,1.8,6.1,2.9,8.9,2.9c4,0,5.4-1.9,5.4-7.6V815z M1085,763.4c1.4,1.9,2.2,4.1,2.2,6.4c0,2.5-1,4.9-2.7,6.7
			c-1.9,1.8-4.3,2.7-6.9,2.7c-2.4,0-4.6-1-6.5-3c-7.2-8.6-17.7-18.2-26.4-24.4c-2.1-1.4-3.2-3.8-3.2-6.4c0-2.1,0.8-4.3,2.5-6.2
			c1.9-2.1,4.3-3,6.9-3c1.8,0,3.8,0.6,5.4,1.8C1065.8,744,1077.9,754.5,1085,763.4z"/>
		<path class="st2" d="M938.3,877.3v-8h153.6v8H938.3z"/>
	</g>
	<g class="st1">
		<path class="st2" d="M1128.4,772.8c-0.3,39-4.1,66.8-14.8,89.9c-1.4,3.3-4.1,5.3-7.6,5.3c-1.8,0-3.5-0.5-5.6-1.6
			c-3.3-1.8-5.1-4.3-5.1-7.2c0-1.6,0.5-3.2,1.3-4.9c11.2-22.3,14.5-44.9,14.5-106.8c0-1.4,0-2.9,0-4.5c0-11.3,6.2-16.3,17.7-16.3
			h96.2c11,0,16.6,4.3,16.6,15.3v15.8c0,10.8-5.4,15-16.6,15H1128.4z M1220.1,756.6c2.9,0,4.3-1,4.3-3.8v-5.4c0-2.9-1.4-4-4.3-4
			h-86.4c-3.8,0-5.3,1.3-5.3,4.5v8.8H1220.1z M1221.4,789.4c11.5,0,16.7,4.3,16.7,15.6v47.5c0,11.5-5.3,15.9-16.7,15.9h-69.3
			c-11.5,0-16.7-4.5-16.7-15.9V805c0-11.3,5.3-15.6,16.7-15.6h25.5v-8.1c0-3.8,3.3-5.9,8.4-5.9s8.4,2.1,8.4,5.9v8.1H1221.4z
			 M1157.5,804.7c-4,0-5.3,1-5.3,4.9v11.6h25.3v-16.6H1157.5z M1152.3,835.9V848c0,4.3,1.3,5.1,5.3,5.1h20.1v-17.2H1152.3z
			 M1194.5,821.2h26.8v-11.6c0-4-1.3-4.9-5.4-4.9h-21.4V821.2z M1194.5,853.1h21.4c4.1,0,5.4-0.8,5.4-5.1v-12.1h-26.8V853.1z"/>
		<path class="st2" d="M1091.9,877.3v-8h156.3v8H1091.9z"/>
	</g>
	<g class="st1">
		<path class="st2" d="M1289.8,736.8c0,0.8-0.2,1.6-0.3,2.5c-4.5,20.7-7,43.2-7,60.7c0,16.4,1.9,34.9,5.4,50.2
			c0.3,1.3,0.5,2.4,0.5,3.5c0,4.3-2.4,7.2-6.9,8.3c-1,0.3-2.1,0.5-3.2,0.5c-4.1,0-8.1-2.2-9.4-7c-3.8-16.3-5.9-36.8-5.9-55.8
			c0-18,2.7-40,7.2-63.6c1-5.3,4.6-7.8,9.6-7.8c0.6,0,1.4,0,2.1,0.2C1286.9,729.1,1289.8,732.3,1289.8,736.8z M1370.1,793.4
			c0,22-3.7,37.9-10.2,49.1c-6.7,11.6-18,20.6-31.4,25.2c-1.6,0.5-3.2,0.8-4.8,0.8c-4,0-7.2-2.1-8.8-6.1c-0.6-1.6-1-3.2-1-4.8
			c0-3.7,1.9-7,5.7-8.3c10.2-3.5,19.1-9.2,24.1-17.7c4.8-8.3,7.5-21.4,7.5-40.8c0-3.5,0-7-0.2-10.5c-6.9,0.6-14,0.8-21.2,1
			c-7.6,0-16.4,0-22.5-0.3c-5.1-0.3-8-3.8-8-8.8c0-0.2,0-0.3,0-0.5c0.2-5.4,3.2-9.1,8.1-8.9c5.6,0.3,14.3,0.5,21.2,0.5
			c7.6,0,15-0.2,22-0.8c-0.3-9.6-1-19.6-1.4-27.1c0-0.3,0-0.5,0-0.8c0-5.3,3.2-8,9.1-8.3c0.3,0,0.6,0,1,0c5.4,0,8.3,2.7,8.6,7.8
			c0.6,6.9,1.3,16.6,1.4,26.8c5.6-0.5,11.3-1.4,15.9-2.4c0.6-0.2,1.3-0.2,1.8-0.2c4.6,0,7.3,3,8,8c0.2,0.6,0.2,1.3,0.2,1.9
			c0,4.3-2.5,7.2-7,8.1c-5.4,1.1-11.3,2.1-18.3,2.7C1370.1,783.6,1370.1,788.1,1370.1,793.4z"/>
		<path class="st2" d="M1247.7,877.3v-8h149.1v8H1247.7z"/>
	</g>
</g>
</svg>
