<svg xmlns="http://www.w3.org/2000/svg" viewBox="0 0 1195.31 385"><defs><style>.cls-1{fill:#004098;}</style></defs><g id="レイヤー_2" data-name="レイヤー 2"><g id="レイヤー_1-2" data-name="レイヤー 1"><path d="M16.09,361.68H0V283.9H16.09Z"/><path d="M43.15,316.9c5.13-5.48,9.68-7.7,16.21-7.7,7.8,0,13.87,3.38,16.32,9.22,1.4,3.38,2,7.45,2,14.11v29.15H62.39V334c0-7.93-2.69-11.43-8.64-11.43-6.64,0-10.6,4.2-10.6,11.31v27.76H27.87V310.37H43.15Z"/><path d="M105.53,316.9c5.14-5.48,9.68-7.7,16.21-7.7,7.82,0,13.88,3.38,16.33,9.22,1.4,3.38,2,7.45,2,14.11v29.15H124.78V334c0-7.93-2.69-11.43-8.64-11.43-6.65,0-10.61,4.2-10.61,11.31v27.76H90.26V310.37h15.27v6.53Z"/><path d="M176.78,322.61c7,0,12.36,5.72,12.36,13.18,0,7.93-5.13,13.65-12.24,13.65s-12.48-5.83-12.48-13.41S169.78,322.61,176.78,322.61Zm.12-13.41c-16.44,0-28.46,11.55-28.46,27.29,0,14.93,12,26.36,27.64,26.36,17.26,0,29-11,29-26.82C205.12,320.75,192.88,309.2,176.9,309.2Z"/><path d="M243.36,361.68H230.31L207.1,310.37h16.68l13.4,29.86,13.42-29.86h16.21Z"/><path d="M298.86,322.61A13.13,13.13,0,0,1,312,335.56c0,8.05-5.72,13.88-13.52,13.88-7.47,0-12.95-5.72-12.95-13.3A13.14,13.14,0,0,1,298.86,322.61Zm28.22-12.24H311.81v6.53c-5-5.25-10.38-7.7-16.68-7.7-14.58,0-25.53,11.55-25.53,27.06s10.72,26.59,25.76,26.59c6.42,0,11.09-2,16.45-7.23v6.06h15.27Z"/><path d="M357.17,310.37h9.1v12.36h-9.1v38.95H341.89V322.73h-5.13V310.37h5.13V295h15.28Z"/><path d="M390.52,361.68H375.24V310.37h15.28ZM392,291.13a9,9,0,0,1-9.11,9,8.91,8.91,0,0,1-9-8.63,9.12,9.12,0,0,1,9.09-9.45A9,9,0,0,1,392,291.13Z"/><path d="M428.41,322.61c7,0,12.36,5.72,12.36,13.18,0,7.93-5.12,13.65-12.24,13.65s-12.47-5.83-12.47-13.41S421.42,322.61,428.41,322.61Zm.12-13.41c-16.44,0-28.45,11.55-28.45,27.29,0,14.93,12,26.36,27.64,26.36,17.25,0,29-11,29-26.82C456.75,320.75,444.51,309.2,428.53,309.2Z"/><path d="M481.24,316.9c5.12-5.48,9.67-7.7,16.2-7.7,7.82,0,13.89,3.38,16.33,9.22,1.4,3.38,2,7.45,2,14.11v29.15H500.47V334c0-7.93-2.67-11.43-8.62-11.43-6.65,0-10.61,4.2-10.61,11.31v27.76H466V310.37h15.28Z"/><path d="M586.41,324.46c6.77,0,12.11,5.56,12.11,12.67,0,7.44-5.11,12.88-12.11,12.88A12.43,12.43,0,0,1,574,337.24,12.58,12.58,0,0,1,586.41,324.46Zm-11.67-42.54H560.19v79.76h14.55v-5.44c4.89,4.66,9.44,6.55,15.44,6.55,13.89,0,23.56-10.34,23.56-25.21s-10.12-25.89-23.56-25.89c-6.22,0-10.78,2-15.44,6.89Z"/><path d="M639.28,383.9H624.61l12.55-26.44-21-44.66h16.21l12.34,28.44,13.22-28.44h14.22Z"/><path d="M766.78,306.17c-6.41-5.95-12.59-8.62-19.71-8.62-13.88,0-23.09,10-23.09,25.18S733.31,348,747,348c7.34,0,12.83-2.34,19.83-8.63v18.65c-7.47,3.5-13.06,4.9-20.64,4.9-22,0-39.07-17.6-39.07-40.46,0-22.39,17.37-39.89,39.42-39.89,7.23,0,12.47,1.29,20.28,4.91v18.65Z"/><path d="M793.48,316.2c5.13-4.78,10.26-7,16-7,7.12,0,13.42,3.6,16.21,9.32,1.76,3.62,2.22,6.65,2.22,14v29.15H812.6V334.63c0-8.05-2.91-12-8.86-12-6.41,0-10.26,4.9-10.26,12.95v26.12H778.2V278h15.28V316.2Z"/><path d="M852.6,329.26c1.86-5.83,5.25-8.4,11-8.4,5.13,0,8.63,2.8,10.14,8.4Zm36.85,10c-.11-18.89-9.68-30.09-25.66-30.09-15.39,0-25.89,10.62-25.89,26.24,0,16.32,11.08,27.41,27.3,27.41,10.14,0,17.6-4.32,23.2-13.3l-10.62-6.76c-4,5.59-7.57,7.81-12.94,7.81-6.41,0-11-4.19-12.35-11.31Z"/><path d="M914.75,316.43c5-5.12,9.1-7.22,14.35-7.22,6.18,0,10.37,2.32,14.45,8.16,5.25-5.95,9.45-8.16,15.63-8.16s12,3,15,7.57c2.45,3.73,3.15,7.47,3.15,15.86v29H962.1V333.46c0-7.59-2.46-10.85-7.93-10.85-5.72,0-8.28,3.86-8.28,12.48v26.59H930.61V333.92c0-8.15-2.1-11.31-7.46-11.31-5.83,0-8.4,3.86-8.4,12.37v26.7H899.48V310.37h15.27v6.06Z"/><path d="M1002.91,361.68H987.63V310.37h15.28Zm1.51-70.55a9,9,0,0,1-9.09,9,8.92,8.92,0,0,1-9-8.63,9.11,9.11,0,0,1,9.09-9.45A9,9,0,0,1,1004.42,291.13Z"/><path d="M1038.83,324.71c-1.52-3.15-2.93-4.43-5.25-4.43a4.41,4.41,0,0,0-4.32,4.43c0,2.45,1.86,3.85,7.23,5.72,6.3,2.1,7.58,2.67,10,4.43a13.33,13.33,0,0,1,5.36,11.07c0,9.92-7.92,16.92-19.35,16.92-10.15,0-15.63-3.74-19.48-13.18l12.36-4.08c1.87,3.84,4.09,5.71,7.12,5.71a4,4,0,0,0,4.31-4.08c0-2.81-1-3.5-8.28-5.83-9.91-3.39-14-7.93-14-15.52,0-9.67,7.93-16.67,19-16.67,8.29,0,14,3.85,17.26,11.66Z"/><path d="M1080.45,310.37h9.09v12.36h-9.09v38.95h-15.27V322.73H1060V310.37h5.14V295h15.27Z"/><path d="M1130.71,326.11c-2.56-1.28-4-1.75-5.83-1.75-7,0-11.09,5.6-11.09,14.93v22.39h-15.27V310.37h15.27v7.81c4.56-5.47,9.11-7.81,16.92-9v16.9Z"/><path d="M1160.8,385h-15.4l13.18-27.75-22-46.88h17l12.94,29.85,13.87-29.85h14.93Z"/><polygon class="cls-1" points="153.41 0 93.56 81.93 147.43 81.93 206.23 0 153.41 0"/><polygon class="cls-1" points="1044.62 0 984.76 81.93 1038.64 81.93 1097.43 0 1044.62 0"/><path class="cls-1" d="M734.72,198.48,744.44,170l54.73,0,9.72,28.49h42.62L795.64,39.35H747L691.88,198.48ZM771.79,89.7,788,137.13H755.63Z"/><path class="cls-1" d="M592.54,198.46V144.79l36.58,53.67h50l-43.79-63.78a50.13,50.13,0,0,0,27.82-44.09c.21-34.1-27.25-51.25-46.83-51.25H549.11V198.46Zm0-122.58c15.61-.16,29.88,1.47,29.88,16.06s-11.77,18.16-29.88,18Z"/><polygon class="cls-1" points="194.91 39.34 194.91 81.94 242.41 81.93 242.41 198.46 289.92 198.46 289.92 81.94 334.8 81.94 334.8 39.34 194.91 39.34"/><path class="cls-1" d="M433.75,34.4C374.12,34.4,345,72.23,345,118.91s31.9,84.54,88.78,84.54,88.75-37.84,88.75-84.54S493.36,34.4,433.75,34.4Zm0,131c-23.31,0-42.75-20.82-42.75-46.51s18.31-46.5,42.75-46.5,42.75,20.83,42.75,46.5S457.05,165.42,433.74,165.42Z"/><path class="cls-1" d="M433.75,34.4C374.12,34.4,345,72.23,345,118.91s31.9,84.54,88.78,84.54,88.75-37.84,88.75-84.54S493.36,34.4,433.75,34.4Zm0,131c-23.31,0-42.75-20.82-42.75-46.51s18.31-46.5,42.75-46.5,42.75,20.83,42.75,46.5S457.05,165.42,433.74,165.42Z"/><polygon class="cls-1" points="941.78 39.34 914.37 81.35 886.92 39.34 836.01 39.34 893.09 122.54 893.09 198.47 935.66 198.47 935.66 122.54 992.7 39.34 941.78 39.34"/></g></g></svg>