<svg xmlns="http://www.w3.org/2000/svg" viewBox="0 0 1659.26 1400"><defs><style>.cls-1{fill:#3aaded}</style></defs><g id="レイヤー_2" data-name="レイヤー 2"><g id="Layer_1" data-name="Layer 1"><path class="cls-1" d="M829.63 25.93c-443.88 0-803.7 255.36-803.7 570.37 0 204.59 151.89 384 379.92 484.6a576.26 576.26 0 01-26.48 76.51c-59.59 140.25-172 216.41-172 216.41s271.19 14.7 485.15-185.23c9.9-9.24 19.24-18.3 28.3-27.28 35.57 3.43 71.86 5.36 108.77 5.36 443.88 0 803.7-255.38 803.7-570.37S1273.51 25.93 829.63 25.93z"/><path class="cls-1" d="M220.07 1400c-9.12 0-14.06-.28-14.06-.28l-76.56-4.3 63.43-43c1-.73 107-74.05 162.63-205.1 7.34-17.28 13.78-34.73 19.21-52.08C139.58 984.62 0 799.42 0 596.3 0 267.5 372.17 0 829.63 0s829.63 267.5 829.63 596.3-372.17 596.29-829.63 596.29c-32.23 0-65.55-1.47-99.17-4.35q-9.76 9.52-20.21 19.29C519.14 1386.12 286.74 1400 220.07 1400zM829.63 51.85c-428.87 0-777.78 244.24-777.78 544.45 0 187.86 136.25 360.15 364.48 460.88l20.33 9-5.76 21.45a603.68 603.68 0 01-27.68 80c-33.72 79.4-83.12 139-121.86 177.22 93.81-9.72 255.34-46 393.5-175.12 9.72-9.07 18.89-18 27.77-26.76l8.64-8.53 12.07 1.17c36.08 3.45 71.84 5.21 106.29 5.21 428.87 0 777.78-244.23 777.78-544.44S1258.5 51.85 829.63 51.85z"/><text transform="translate(425.81 568.38)" fill="#fff" font-family="HiraMaruStdN-W6-83pv-RKSJ-H,Hiragino Maru Gothic StdN" font-size="385.12">直送</text><text transform="translate(264.42 857.41)" font-size="159.33" text-decoration="underline" fill="#fff" font-family="HiraMaruStdN-W6-83pv-RKSJ-H,Hiragino Maru Gothic StdN">3～<tspan x="268.16" y="0" letter-spacing="-.02em">4</tspan><tspan x="373.48" y="0" letter-spacing="-.05em">日</tspan><tspan x="525.32" y="0" letter-spacing="-.03em">で</tspan><tspan x="679.88" y="0" letter-spacing="-.01em">お</tspan><tspan x="837.46" y="0" letter-spacing="-.02em">届</tspan><tspan x="993.28" y="0" letter-spacing="-.02em">け</tspan></text></g></g></svg>